<svg xmlns="http://www.w3.org/2000/svg" viewBox="0 0 20 20"><defs><style>.cls-1,.cls-2{fill:#ccc;}.cls-1{opacity:0;}</style></defs><title>Calender</title><g id="Layer_2" data-name="Layer 2"><g id="Layer_1-2" data-name="Layer 1"><rect class="cls-1" width="20" height="20"/><g id="Layer_2-2" data-name="Layer 2"><g id="Layer_1-2-2" data-name="Layer 1-2"><path class="cls-2" d="M15.45,3.53h-2V3a.52.52,0,0,0-.59-.42.51.51,0,0,0-.41.42v.51h-5V3A.46.46,0,0,0,7,2.53H7A.46.46,0,0,0,6.48,3v.58h-2A2.45,2.45,0,0,0,2,6v9a2.47,2.47,0,0,0,2.44,2.49h11A2.47,2.47,0,0,0,18,15.09V6a2.46,2.46,0,0,0-2.44-2.49ZM3,6A1.51,1.51,0,0,1,4.49,4.53h2V5a.46.46,0,0,0,.44.49H7a.47.47,0,0,0,.49-.43V4.53h5V5a.5.5,0,0,0,.58.42A.53.53,0,0,0,13.47,5V4.53h2A1.52,1.52,0,0,1,17,6V7.51H3Zm14,9a1.55,1.55,0,0,1-1.5,1.51h-11A1.53,1.53,0,0,1,3,15V8.51H17Z"/><path class="cls-2" d="M5.49,15a.91.91,0,0,0,.7-.29,1,1,0,0,0,0-1.4,1,1,0,0,0-1.36,0l0,0a.9.9,0,0,0-.3.7,1.09,1.09,0,0,0,.3.7A.93.93,0,0,0,5.49,15Z"/><path class="cls-2" d="M5.49,12a.88.88,0,0,0,.7-.29A1.08,1.08,0,0,0,6.48,11a1.05,1.05,0,0,0-.29-.69,1,1,0,0,0-1.38,0l0,0a.88.88,0,0,0-.3.69.91.91,0,0,0,.3.71A.89.89,0,0,0,5.49,12Z"/><path class="cls-2" d="M8.48,15a.89.89,0,0,0,.69-.29,1.1,1.1,0,0,0,.31-.7,1,1,0,0,0-.31-.7.94.94,0,0,0-1.33,0,1.15,1.15,0,0,0-.31.7,1.15,1.15,0,0,0,.31.7.91.91,0,0,0,.69.29Z"/><path class="cls-2" d="M8.48,12a.86.86,0,0,0,.69-.29A1.05,1.05,0,0,0,9.48,11a1.07,1.07,0,0,0-.31-.69.94.94,0,0,0-1.33,0,1.12,1.12,0,0,0-.31.69,1.15,1.15,0,0,0,.31.71.87.87,0,0,0,.69.29Z"/><path class="cls-2" d="M11.47,15a.93.93,0,0,0,.7-.29,1,1,0,0,0,0-1.34,1,1,0,0,0-1.33,0,1.18,1.18,0,0,0-.31.71,1.1,1.1,0,0,0,.31.69.88.88,0,0,0,.69.3Z"/><path class="cls-2" d="M11.47,12a.89.89,0,0,0,.7-.29,1,1,0,0,0,.3-.71,1.14,1.14,0,0,0-.3-.69,1,1,0,0,0-1.33,0,1.12,1.12,0,0,0-.31.69,1.15,1.15,0,0,0,.31.71.87.87,0,0,0,.69.29Z"/><path class="cls-2" d="M14.45,15a.94.94,0,0,0,.71-.29,1,1,0,0,0,0-1.4,1,1,0,0,0-1.33,0,.9.9,0,0,0-.3.7,1.09,1.09,0,0,0,.3.7.89.89,0,0,0,.69.29Z"/><path class="cls-2" d="M14.45,12a1,1,0,0,0,1-1,1.05,1.05,0,0,0-.29-.69,1,1,0,0,0-1.33,0,1.06,1.06,0,0,0-.3.69,1.09,1.09,0,0,0,.3.71.86.86,0,0,0,.69.29Z"/></g></g></g></g></svg>